<svg width="24" height="24" viewBox="0 0 24 24" fill="none" xmlns="http://www.w3.org/2000/svg">
<path d="M10.4386 5.69237C10.821 5.29388 10.8079 4.66085 10.4094 4.27846C10.011 3.89607 9.37792 3.90913 8.99553 4.30763L10.4386 5.69237ZM3 12L2.27846 11.3076C1.90718 11.6945 1.90718 12.3055 2.27846 12.6924L3 12ZM8.99553 19.6924C9.37792 20.0909 10.011 20.1039 10.4094 19.7215C10.8079 19.3392 10.821 18.7061 10.4386 18.3076L8.99553 19.6924ZM4.26688 11.0317C3.71459 11.0317 3.26688 11.4795 3.26688 12.0317C3.26688 12.584 3.71459 13.0317 4.26688 13.0317V11.0317ZM19.9999 13.0317C20.5522 13.0317 20.9999 12.584 20.9999 12.0317C20.9999 11.4795 20.5522 11.0317 19.9999 11.0317V13.0317ZM8.99553 4.30763L2.27846 11.3076L3.72154 12.6924L10.4386 5.69237L8.99553 4.30763ZM2.27846 12.6924L8.99553 19.6924L10.4386 18.3076L3.72154 11.3076L2.27846 12.6924ZM4.26688 13.0317H19.9999V11.0317H4.26688V13.0317Z" fill="url(#paint0_linear)"/>
<defs>
<linearGradient id="paint0_linear" x1="3" y1="9.27" x2="20.3269" y2="11.1389" gradientUnits="userSpaceOnUse">
<stop stop-color="#52EE4F"/>
<stop offset="1" stop-color="#059700"/>
</linearGradient>
</defs>
</svg>
